<?xml version="1.0" encoding="utf-8"?>
<!-- Generator: Adobe Illustrator 28.0.0, SVG Export Plug-In . SVG Version: 6.00 Build 0)  -->
<svg version="1.1" id="Vrstva_1" xmlns="http://www.w3.org/2000/svg" xmlns:xlink="http://www.w3.org/1999/xlink" x="0px" y="0px"
	 viewBox="0 0 512 512" style="enable-background:new 0 0 512 512;" xml:space="preserve">
<style type="text/css">
	.st0{fill:#F6F6F6;}
	.st1{fill:#DADADA;}
	.st2{fill:#E90006;}
</style>
<path class="st0" d="M446.83,512.45H65.17c-35.84,0-64.9-29.06-64.9-64.9V65.89c0-35.84,29.06-64.9,64.9-64.9h381.67
	c35.84,0,64.9,29.06,64.9,64.9v381.67C511.73,483.4,482.67,512.45,446.83,512.45z"/>
<path class="st1" d="M289.39,250.01h-59.6c-9.34,0-16.91-7.57-16.91-16.91v-32.37c0-9.34,7.57-16.91,16.91-16.91h59.6
	c9.34,0,16.91,7.57,16.91,16.91v32.37C306.3,242.44,298.73,250.01,289.39,250.01z"/>
<path class="st1" d="M160.24,250.01h-59.6c-9.34,0-16.91-7.57-16.91-16.91v-32.37c0-9.34,7.57-16.91,16.91-16.91h59.6
	c9.34,0,16.91,7.57,16.91,16.91v32.37C177.14,242.44,169.57,250.01,160.24,250.01z"/>
<path class="st2" d="M410.8,250.01h-59.6c-9.34,0-16.91-7.57-16.91-16.91v-32.37c0-9.34,7.57-16.91,16.91-16.91h59.6
	c9.34,0,16.91,7.57,16.91,16.91v32.37C427.7,242.44,420.13,250.01,410.8,250.01z"/>
<path class="st1" d="M289.56,345.49h-59.6c-9.34,0-16.91-7.57-16.91-16.91v-32.37c0-9.34,7.57-16.91,16.91-16.91h59.6
	c9.34,0,16.91,7.57,16.91,16.91v32.37C306.47,337.92,298.9,345.49,289.56,345.49z"/>
<path class="st1" d="M160.41,345.49h-59.6c-9.34,0-16.91-7.57-16.91-16.91v-32.37c0-9.34,7.57-16.91,16.91-16.91h59.6
	c9.34,0,16.91,7.57,16.91,16.91v32.37C177.31,337.92,169.74,345.49,160.41,345.49z"/>
<path class="st1" d="M410.97,345.49h-59.6c-9.34,0-16.91-7.57-16.91-16.91v-32.37c0-9.34,7.57-16.91,16.91-16.91h59.6
	c9.34,0,16.91,7.57,16.91,16.91v32.37C427.87,337.92,420.3,345.49,410.97,345.49z"/>
<path class="st1" d="M289.39,440.97h-59.6c-9.34,0-16.91-7.57-16.91-16.91v-32.37c0-9.34,7.57-16.91,16.91-16.91h59.6
	c9.34,0,16.91,7.57,16.91,16.91v32.37C306.3,433.4,298.73,440.97,289.39,440.97z"/>
<path class="st1" d="M160.24,440.97h-59.6c-9.34,0-16.91-7.57-16.91-16.91v-32.37c0-9.34,7.57-16.91,16.91-16.91h59.6
	c9.34,0,16.91,7.57,16.91,16.91v32.37C177.14,433.4,169.57,440.97,160.24,440.97z"/>
<path class="st1" d="M410.8,440.97h-59.6c-9.34,0-16.91-7.57-16.91-16.91v-32.37c0-9.34,7.57-16.91,16.91-16.91h59.6
	c9.34,0,16.91,7.57,16.91,16.91v32.37C427.7,433.4,420.13,440.97,410.8,440.97z"/>
<path class="st2" d="M511.73,65.89v42.68H0.27V65.89c0-35.84,29.05-64.9,64.89-64.9h381.67C482.67,0.99,511.73,30.05,511.73,65.89z"
	/>
<path class="st2" d="M511.73,65.89v42.68H0.27V65.89c0-35.84,29.05-64.9,64.89-64.9h381.67C482.67,0.99,511.73,30.05,511.73,65.89z"
	/>
</svg>
